<svg xmlns="http://www.w3.org/2000/svg" xmlns:xlink="http://www.w3.org/1999/xlink" width="1000" zoomAndPan="magnify" viewBox="0 0 750 749.999995" height="1000" preserveAspectRatio="xMidYMid meet" version="1.0"><defs><clipPath id="b6e11b77e3"><path d="M 0 1.253906 L 749 1.253906 L 749 749 L 0 749 Z M 0 1.253906 " clip-rule="nonzero"/></clipPath></defs><path fill="#8c52ff" d="M 486.445312 300.46875 C 496.40625 300.46875 505.742188 296.578125 512.898438 289.574219 C 519.898438 282.574219 523.789062 273.082031 523.789062 263.125 C 523.789062 253.164062 519.898438 243.828125 512.898438 236.671875 C 505.894531 229.671875 496.40625 225.78125 486.445312 225.78125 C 476.488281 225.78125 467.152344 229.671875 459.996094 236.671875 C 452.992188 243.675781 449.101562 253.164062 449.101562 263.125 C 449.101562 273.082031 452.992188 282.417969 459.996094 289.574219 C 467.152344 296.578125 476.488281 300.46875 486.445312 300.46875 Z M 477.578125 254.253906 C 479.910156 251.921875 483.023438 250.675781 486.445312 250.675781 C 489.871094 250.675781 492.824219 251.921875 495.316406 254.253906 C 497.648438 256.589844 498.894531 259.699219 498.894531 263.125 C 498.894531 266.546875 497.648438 269.503906 495.316406 271.992188 C 492.980469 274.328125 489.871094 275.570312 486.445312 275.570312 C 483.023438 275.570312 480.066406 274.328125 477.578125 271.992188 C 475.242188 269.660156 474 266.546875 474 263.125 C 474 259.699219 475.242188 256.746094 477.578125 254.253906 Z M 477.578125 254.253906 " fill-opacity="1" fill-rule="nonzero"/><path fill="#8c52ff" d="M 75.039062 656.945312 L 92.640625 639.34375 L 110.246094 656.945312 L 92.640625 674.550781 Z M 75.039062 656.945312 " fill-opacity="1" fill-rule="nonzero"/><path fill="#8c52ff" d="M 119.058594 612.96875 L 303.894531 428.125 L 321.5 445.726562 L 136.664062 630.574219 Z M 119.058594 612.96875 " fill-opacity="1" fill-rule="nonzero"/><g clip-path="url(#b6e11b77e3)"><path fill="#8c52ff" d="M 740.226562 221.421875 L 685.613281 200.105469 L 671.761719 166.808594 L 695.414062 112.972656 C 697.4375 108.304688 696.503906 102.859375 692.769531 99.125 L 650.292969 56.644531 C 646.710938 53.066406 641.109375 51.976562 636.441406 54 L 582.605469 77.652344 L 549.464844 63.957031 L 528.148438 9.1875 C 526.28125 4.363281 521.613281 1.253906 516.476562 1.253906 L 456.261719 1.253906 C 451.125 1.253906 446.457031 4.363281 444.589844 9.1875 L 423.429688 63.957031 L 390.132812 77.808594 L 336.292969 54.15625 C 331.625 52.132812 326.179688 53.066406 322.445312 56.800781 L 279.96875 99.28125 C 276.390625 102.859375 275.300781 108.460938 277.324219 113.128906 L 300.972656 166.964844 L 287.125 200.261719 L 232.355469 221.578125 C 227.53125 223.445312 224.417969 228.113281 224.417969 233.25 L 224.417969 293.464844 C 224.417969 298.601562 227.53125 303.269531 232.355469 305.136719 L 241.070312 308.558594 C 241.070312 309.023438 240.914062 309.492188 240.914062 309.804688 C 236.710938 342.167969 242.46875 375.15625 257.09375 404.09375 L 18.097656 626.757812 C 7.203125 636.871094 0.980469 651.339844 0.980469 666.277344 C 0.980469 680.59375 6.582031 694.128906 16.695312 704.398438 L 45.015625 732.71875 C 55.285156 742.988281 68.820312 748.589844 83.292969 748.746094 C 98.230469 748.746094 112.542969 742.519531 122.660156 731.628906 L 284.480469 558.292969 L 266.277344 541.332031 L 104.453125 714.667969 C 99.007812 720.582031 91.226562 723.847656 83.292969 723.847656 C 75.511719 723.847656 68.042969 720.738281 62.441406 715.136719 L 34.125 686.816406 C 28.832031 681.214844 25.875 673.902344 25.875 666.121094 C 25.875 658.03125 29.300781 650.40625 35.210938 644.960938 L 281.367188 415.453125 C 285.570312 411.410156 286.503906 405.027344 283.546875 400.050781 C 251.183594 345.125 260.675781 275.882812 306.730469 231.691406 C 339.25 200.417969 385.929688 187.503906 429.808594 196.683594 L 348.742188 277.75 C 345.476562 281.019531 344.230469 285.996094 345.785156 290.507812 L 372.238281 369.707031 C 373.480469 373.441406 376.4375 376.398438 380.171875 377.644531 L 459.371094 404.09375 C 463.886719 405.652344 468.707031 404.40625 472.132812 401.140625 L 538.570312 334.699219 C 537.484375 369.242188 523.324219 402.695312 498.582031 427.589844 C 460.929688 465.246094 404.136719 477.695312 354.03125 459.175781 C 349.363281 457.464844 344.074219 458.710938 340.652344 462.289062 L 291.015625 515.347656 L 309.21875 532.308594 L 353.253906 485.164062 C 368.96875 490.140625 385.308594 492.476562 401.488281 492.476562 C 412.382812 492.476562 423.273438 491.386719 434.011719 489.207031 L 444.902344 517.214844 C 446.769531 522.039062 451.4375 525.152344 456.570312 525.152344 L 516.789062 525.152344 C 521.921875 525.152344 526.589844 522.039062 528.457031 517.214844 L 549.773438 462.445312 L 583.074219 448.597656 L 636.910156 472.246094 C 641.578125 474.269531 647.023438 473.335938 650.757812 469.601562 L 693.234375 427.125 C 696.816406 423.546875 697.902344 417.945312 695.882812 413.277344 L 672.230469 359.4375 L 686.078125 326.140625 L 740.847656 304.824219 C 745.671875 302.957031 748.785156 298.289062 748.785156 293.15625 L 748.785156 232.9375 C 748.164062 227.957031 745.050781 223.289062 740.226562 221.421875 Z M 249.625 274.636719 L 249.625 241.496094 L 272.65625 232.472656 C 262.851562 245.386719 255.074219 259.546875 249.625 274.636719 Z M 472.132812 189.371094 L 538.105469 211.308594 L 560.042969 277.285156 L 500.449219 336.878906 L 434.476562 314.9375 L 412.539062 248.964844 Z M 459.839844 377.800781 L 393.867188 355.859375 L 371.925781 289.886719 L 393.085938 268.726562 L 413.160156 328.785156 C 414.40625 332.519531 417.359375 335.476562 421.09375 336.722656 L 481.15625 356.792969 Z M 723.265625 284.753906 L 671.609375 304.824219 C 668.496094 306.070312 665.851562 308.558594 664.605469 311.671875 L 646.710938 354.769531 C 645.46875 357.882812 645.46875 361.460938 646.867188 364.574219 L 669.273438 415.453125 L 638.777344 445.953125 L 587.894531 423.546875 C 584.785156 422.144531 581.207031 422.144531 578.09375 423.390625 L 534.992188 441.285156 C 531.882812 442.527344 529.390625 445.171875 528.148438 448.285156 L 508.074219 499.945312 L 464.972656 499.945312 L 457.972656 481.894531 C 479.445312 473.960938 499.359375 461.511719 516.164062 444.707031 C 524.878906 435.992188 532.347656 426.5 538.882812 416.230469 C 569.535156 405.808594 596.921875 385.890625 616.371094 359.90625 C 637.375 331.742188 648.578125 298.289062 648.578125 263.125 C 648.578125 228.269531 637.6875 195.128906 616.992188 167.121094 L 596.921875 181.902344 C 614.191406 205.554688 623.371094 233.714844 623.371094 263.125 C 623.371094 293 614.035156 321.316406 596.144531 344.96875 C 585.09375 359.75 570.9375 372.199219 554.910156 381.535156 C 562.378906 358.972656 565.023438 334.699219 562.066406 310.582031 L 583.226562 289.421875 C 586.496094 286.152344 587.742188 281.171875 586.183594 276.660156 L 559.734375 197.460938 C 558.488281 193.726562 555.53125 190.769531 551.796875 189.527344 L 472.597656 163.074219 C 468.085938 161.519531 463.261719 162.761719 459.839844 166.03125 L 450.035156 175.832031 C 429.1875 169.296875 407.558594 167.277344 386.398438 169.296875 C 412.226562 142.378906 448.324219 126.199219 486.445312 126.199219 C 520.210938 126.199219 552.730469 138.644531 577.78125 161.050781 L 594.429688 142.535156 C 564.710938 115.929688 526.433594 101.300781 486.445312 101.300781 C 430.742188 101.300781 378.460938 130.398438 349.054688 177.546875 C 338.160156 181.28125 327.582031 186.101562 317.621094 192.171875 L 326.179688 171.476562 C 327.425781 168.363281 327.425781 164.785156 326.023438 161.675781 L 303.617188 110.792969 L 334.117188 80.296875 L 384.996094 102.703125 C 388.109375 104.101562 391.6875 104.101562 394.800781 102.859375 L 437.898438 84.964844 C 441.011719 83.71875 443.5 81.074219 444.746094 77.960938 L 464.820312 26.304688 L 507.917969 26.304688 L 528.148438 77.960938 C 529.390625 81.074219 531.882812 83.71875 534.992188 84.964844 L 578.09375 102.859375 C 581.207031 104.101562 584.785156 104.101562 587.894531 102.703125 L 638.777344 80.296875 L 669.273438 110.792969 L 646.867188 161.675781 C 645.46875 164.785156 645.46875 168.363281 646.710938 171.476562 L 664.605469 214.578125 C 665.851562 217.6875 668.496094 220.179688 671.609375 221.421875 L 723.265625 241.496094 Z M 723.265625 284.753906 " fill-opacity="1" fill-rule="nonzero"/></g></svg>