<svg xmlns="http://www.w3.org/2000/svg" xmlns:xlink="http://www.w3.org/1999/xlink" width="1000" zoomAndPan="magnify" viewBox="0 0 750 749.999995" height="1000" preserveAspectRatio="xMidYMid meet" version="1.0"><defs><clipPath id="134e577d9d"><path d="M 375 404.605469 L 390.75 404.605469 L 390.75 420.355469 L 375 420.355469 Z M 375 404.605469 " clip-rule="nonzero"/></clipPath></defs><path fill="#000000" d="M 415.390625 755.320312 L 334.75 755.320312 C 313.367188 755.320312 296.4375 737.945312 296.4375 717.003906 L 296.4375 639.039062 C 278.167969 633.691406 260.792969 626.121094 243.863281 617.210938 L 189.066406 672.453125 C 181.9375 679.582031 172.136719 683.589844 161.890625 683.589844 C 151.640625 683.589844 141.839844 679.582031 134.710938 672.453125 L 77.6875 614.980469 C 70.558594 607.851562 66.546875 598.496094 66.546875 588.25 C 66.546875 578.003906 70.558594 568.203125 77.6875 561.074219 L 132.929688 505.828125 C 123.574219 489.34375 116.445312 471.96875 111.101562 453.703125 L 33.132812 453.703125 C 12.195312 453.703125 -5.179688 436.773438 -5.179688 415.390625 L -5.179688 334.304688 C -5.179688 313.367188 12.195312 296.4375 33.132812 296.4375 L 111.101562 296.4375 C 116.445312 278.167969 123.574219 260.347656 132.484375 243.863281 L 77.6875 189.066406 C 70.558594 181.492188 66.546875 172.136719 66.546875 161.890625 C 66.546875 151.640625 70.558594 141.839844 77.6875 134.710938 L 134.710938 77.6875 C 141.839844 70.558594 151.640625 66.546875 161.890625 66.546875 C 172.136719 66.546875 181.492188 70.558594 188.621094 77.6875 L 243.863281 132.484375 C 260.347656 123.574219 278.167969 116.445312 295.992188 111.101562 L 295.992188 33.132812 C 296.4375 11.75 313.367188 -5.179688 334.75 -5.179688 L 415.390625 -5.179688 C 436.328125 -5.179688 453.703125 11.75 453.703125 33.132812 L 453.703125 111.101562 C 471.96875 116.445312 489.34375 123.574219 505.828125 132.484375 L 561.074219 77.6875 C 568.203125 70.558594 578.003906 66.546875 588.25 66.546875 C 598.496094 66.546875 607.851562 70.558594 614.980469 77.6875 L 672.453125 134.710938 C 679.582031 141.839844 683.589844 151.640625 683.589844 161.890625 C 683.589844 172.136719 679.582031 181.492188 672.453125 189.066406 L 617.210938 243.863281 C 626.121094 260.792969 633.691406 278.167969 639.039062 296.4375 L 717.003906 296.4375 C 737.945312 296.4375 755.320312 313.367188 755.320312 334.75 L 755.320312 415.390625 C 755.320312 436.328125 737.945312 453.703125 717.003906 453.703125 L 639.039062 453.703125 C 633.691406 471.96875 626.121094 489.34375 617.210938 505.828125 L 672.453125 561.074219 C 679.582031 568.203125 683.589844 578.003906 683.589844 588.25 C 683.589844 598.496094 679.582031 607.851562 672.453125 614.980469 L 614.980469 672.453125 C 607.851562 679.582031 598.496094 683.589844 588.25 683.589844 C 578.003906 683.589844 568.203125 679.582031 561.074219 672.453125 L 505.828125 617.210938 C 489.34375 626.121094 471.523438 633.691406 453.703125 639.039062 L 453.703125 717.003906 C 453.703125 737.945312 436.773438 755.320312 415.390625 755.320312 Z M 242.527344 597.160156 C 243.863281 597.160156 245.648438 597.605469 246.984375 598.496094 C 266.140625 609.636719 286.632812 618.101562 307.574219 623.890625 C 311.582031 624.78125 314.257812 628.347656 314.257812 632.355469 L 314.257812 717.003906 C 314.257812 728.144531 323.167969 737.5 334.75 737.5 L 415.390625 737.5 C 426.972656 737.5 435.882812 728.144531 435.882812 717.003906 L 435.882812 632.355469 C 435.882812 628.347656 438.554688 624.78125 442.566406 623.890625 C 463.503906 618.101562 484 609.636719 503.15625 598.496094 C 506.71875 596.269531 511.175781 597.160156 513.847656 599.832031 L 573.546875 659.535156 C 581.566406 667.550781 594.933594 667.550781 602.507812 659.535156 L 659.980469 602.507812 C 663.542969 598.941406 665.769531 593.597656 665.769531 588.25 C 665.769531 582.457031 663.542969 577.558594 659.980469 573.546875 L 599.832031 513.847656 C 597.160156 510.730469 596.714844 506.71875 598.496094 503.15625 C 609.636719 484 618.101562 463.503906 623.445312 442.566406 C 624.78125 438.554688 628.347656 435.882812 632.355469 435.882812 L 717.003906 435.882812 C 728.144531 435.882812 737.054688 426.527344 737.054688 415.390625 L 737.054688 334.304688 C 737.054688 323.167969 728.144531 314.257812 717.003906 314.257812 L 632.355469 314.257812 C 628.347656 314.257812 624.78125 311.582031 623.445312 307.574219 C 618.101562 286.1875 609.636719 266.140625 598.496094 246.984375 C 596.269531 243.417969 597.160156 238.964844 599.832031 236.289062 L 659.535156 176.144531 C 663.542969 172.582031 665.769531 167.234375 665.769531 161.890625 C 665.769531 156.542969 663.542969 151.195312 659.535156 147.1875 L 602.507812 90.160156 C 594.933594 82.585938 581.121094 82.585938 573.546875 90.160156 L 513.847656 149.859375 C 511.175781 152.980469 506.71875 153.425781 503.15625 151.640625 C 484 140.503906 463.503906 132.039062 442.566406 126.246094 C 438.554688 125.355469 435.882812 121.792969 435.882812 117.78125 L 435.882812 33.132812 C 435.882812 21.996094 426.527344 12.640625 415.390625 12.640625 L 334.75 12.640625 C 323.167969 12.640625 314.257812 21.996094 314.257812 33.132812 L 314.257812 117.78125 C 314.257812 121.792969 311.582031 125.355469 307.574219 126.246094 C 286.632812 132.039062 266.140625 140.503906 246.984375 151.640625 C 243.417969 153.425781 238.964844 152.980469 236.289062 149.859375 L 176.144531 90.160156 C 168.570312 82.585938 155.207031 82.585938 147.632812 90.160156 L 90.160156 147.1875 C 86.597656 151.195312 84.367188 156.542969 84.367188 161.890625 C 84.367188 167.234375 86.597656 172.582031 90.160156 176.144531 L 149.859375 236.289062 C 152.980469 238.964844 153.425781 243.417969 151.640625 246.984375 C 140.503906 265.695312 132.039062 286.1875 126.246094 307.574219 C 125.355469 311.582031 121.792969 314.257812 117.78125 314.257812 L 33.132812 314.257812 C 21.996094 314.257812 12.640625 323.167969 12.640625 334.75 L 12.640625 415.390625 C 12.640625 426.527344 21.996094 435.882812 33.132812 435.882812 L 117.78125 435.882812 C 121.792969 435.882812 125.355469 438.554688 126.246094 442.566406 C 132.039062 463.503906 140.503906 484 151.640625 503.15625 C 153.425781 506.71875 152.980469 511.175781 150.304688 513.847656 L 90.160156 573.546875 C 86.597656 577.558594 84.367188 582.457031 84.367188 588.25 C 84.367188 593.597656 86.597656 598.941406 90.160156 602.507812 L 147.632812 659.980469 C 155.207031 667.550781 168.570312 667.550781 176.144531 659.980469 L 236.289062 599.832031 C 238.074219 598.050781 240.300781 597.160156 242.527344 597.160156 Z M 242.527344 597.160156 " fill-opacity="1" fill-rule="evenodd"/><path fill="#000000" d="M 374.847656 596.714844 C 252.773438 596.714844 153.425781 497.363281 153.425781 374.847656 C 153.425781 252.773438 252.773438 153.425781 374.847656 153.425781 C 497.363281 153.425781 596.714844 252.773438 596.714844 374.847656 C 596.714844 497.363281 497.363281 596.714844 374.847656 596.714844 Z M 374.847656 171.246094 C 262.578125 171.246094 171.246094 262.578125 171.246094 374.847656 C 171.246094 487.5625 262.578125 578.894531 374.847656 578.894531 C 487.5625 578.894531 578.894531 487.5625 578.894531 374.847656 C 578.894531 262.578125 487.5625 171.246094 374.847656 171.246094 Z M 374.847656 171.246094 " fill-opacity="1" fill-rule="evenodd"/><path fill="#000000" d="M 320.9375 356.136719 C 318.710938 356.136719 316.484375 355.691406 315.148438 353.90625 L 259.902344 303.5625 C 258.121094 301.78125 256.785156 299.554688 256.785156 296.882812 C 256.785156 294.652344 258.121094 291.980469 259.902344 290.199219 L 315.148438 239.855469 C 318.710938 236.738281 324.058594 236.738281 327.621094 240.300781 C 330.742188 244.308594 330.742188 249.65625 326.730469 253.21875 L 279.0625 296.882812 L 326.730469 340.542969 C 330.742188 344.105469 330.742188 349.453125 327.621094 353.015625 C 325.839844 355.246094 323.613281 356.136719 320.9375 356.136719 Z M 320.9375 356.136719 " fill-opacity="1" fill-rule="evenodd"/><path fill="#000000" d="M 429.199219 356.136719 C 426.527344 356.136719 424.300781 355.246094 422.519531 353.460938 C 419.398438 349.898438 419.398438 344.105469 422.964844 340.988281 L 471.078125 296.882812 L 422.964844 253.21875 C 419.398438 249.65625 419.398438 244.308594 422.519531 240.746094 C 426.082031 236.738281 431.429688 236.738281 434.992188 239.855469 L 490.238281 290.644531 C 492.019531 291.980469 493.355469 294.652344 493.355469 296.882812 C 493.355469 299.554688 492.019531 301.78125 490.238281 303.5625 L 434.992188 353.90625 C 433.210938 355.691406 431.429688 356.136719 429.199219 356.136719 Z M 429.199219 356.136719 " fill-opacity="1" fill-rule="evenodd"/><path fill="#000000" d="M 336.976562 390.441406 C 335.640625 390.441406 334.75 390.441406 333.414062 389.996094 C 328.957031 387.765625 326.730469 382.421875 328.957031 377.964844 L 402.914062 209.113281 C 404.695312 204.660156 410.042969 202.878906 414.5 204.660156 C 418.953125 206.441406 421.179688 211.789062 418.953125 216.242188 L 344.996094 385.09375 C 343.660156 388.660156 340.542969 390.441406 336.976562 390.441406 Z M 336.976562 390.441406 " fill-opacity="1" fill-rule="evenodd"/><path fill="#000000" d="M 520.085938 422.070312 L 230.054688 422.070312 C 225.152344 422.070312 221.144531 418.0625 221.144531 413.160156 C 221.144531 408.261719 225.152344 404.25 230.054688 404.25 L 520.085938 404.25 C 524.988281 404.25 528.996094 408.261719 528.996094 413.160156 C 528.996094 418.0625 524.988281 422.070312 520.085938 422.070312 Z M 520.085938 422.070312 " fill-opacity="1" fill-rule="evenodd"/><path fill="#000000" d="M 467.515625 486.671875 L 282.179688 486.671875 C 277.277344 486.671875 273.269531 482.664062 273.269531 477.761719 C 273.269531 472.859375 277.277344 468.851562 282.179688 468.851562 L 467.515625 468.851562 C 472.414062 468.851562 476.425781 472.859375 476.425781 477.761719 C 476.425781 482.664062 472.414062 486.671875 467.515625 486.671875 Z M 467.515625 486.671875 " fill-opacity="1" fill-rule="evenodd"/><path fill="#000000" d="M 444.347656 545.925781 L 305.792969 545.925781 C 300.890625 545.925781 296.882812 541.917969 296.882812 537.015625 C 296.882812 532.113281 300.890625 528.105469 305.792969 528.105469 L 444.347656 528.105469 C 449.25 528.105469 453.257812 532.113281 453.257812 537.015625 C 453.257812 541.917969 449.25 545.925781 444.347656 545.925781 Z M 444.347656 545.925781 " fill-opacity="1" fill-rule="evenodd"/><g clip-path="url(#134e577d9d)"><path fill="#000000" d="M 390.75 412.480469 C 390.75 412.996094 390.699219 413.507812 390.597656 414.015625 C 390.496094 414.523438 390.347656 415.015625 390.152344 415.492188 C 389.953125 415.972656 389.710938 416.425781 389.421875 416.855469 C 389.136719 417.285156 388.808594 417.683594 388.445312 418.046875 C 388.078125 418.414062 387.679688 418.742188 387.25 419.027344 C 386.820312 419.316406 386.367188 419.558594 385.886719 419.753906 C 385.410156 419.953125 384.917969 420.101562 384.410156 420.203125 C 383.902344 420.304688 383.390625 420.355469 382.875 420.355469 C 382.359375 420.355469 381.847656 420.304688 381.339844 420.203125 C 380.832031 420.101562 380.339844 419.953125 379.863281 419.753906 C 379.382812 419.558594 378.929688 419.316406 378.5 419.027344 C 378.070312 418.742188 377.671875 418.414062 377.304688 418.046875 C 376.941406 417.683594 376.613281 417.285156 376.328125 416.855469 C 376.039062 416.425781 375.796875 415.972656 375.597656 415.492188 C 375.402344 415.015625 375.253906 414.523438 375.152344 414.015625 C 375.050781 413.507812 375 412.996094 375 412.480469 C 375 411.964844 375.050781 411.449219 375.152344 410.945312 C 375.253906 410.4375 375.402344 409.945312 375.597656 409.464844 C 375.796875 408.988281 376.039062 408.535156 376.328125 408.105469 C 376.613281 407.675781 376.941406 407.277344 377.304688 406.910156 C 377.671875 406.546875 378.070312 406.21875 378.5 405.933594 C 378.929688 405.644531 379.382812 405.402344 379.863281 405.203125 C 380.339844 405.007812 380.832031 404.859375 381.339844 404.757812 C 381.847656 404.65625 382.359375 404.605469 382.875 404.605469 C 383.390625 404.605469 383.902344 404.65625 384.410156 404.757812 C 384.917969 404.859375 385.410156 405.007812 385.886719 405.203125 C 386.367188 405.402344 386.820312 405.644531 387.25 405.933594 C 387.679688 406.21875 388.078125 406.546875 388.445312 406.910156 C 388.808594 407.277344 389.136719 407.675781 389.421875 408.105469 C 389.710938 408.535156 389.953125 408.988281 390.152344 409.464844 C 390.347656 409.945312 390.496094 410.4375 390.597656 410.945312 C 390.699219 411.449219 390.75 411.964844 390.75 412.480469 Z M 390.75 412.480469 " fill-opacity="1" fill-rule="nonzero"/></g></svg>